<svg width="33" height="37" viewBox="0 0 33 37" fill="none" xmlns="http://www.w3.org/2000/svg">
<path d="M9.33333 22.084C8.82569 22.084 8.40017 21.9123 8.05677 21.5689C7.71337 21.2255 7.54167 20.8 7.54167 20.2923C7.54167 19.7847 7.71337 19.3592 8.05677 19.0158C8.40017 18.6724 8.82569 18.5007 9.33333 18.5007C9.84097 18.5007 10.2665 18.6724 10.6099 19.0158C10.9533 19.3592 11.125 19.7847 11.125 20.2923C11.125 20.8 10.9533 21.2255 10.6099 21.5689C10.2665 21.9123 9.84097 22.084 9.33333 22.084ZM16.5 22.084C15.9924 22.084 15.5668 21.9123 15.2234 21.5689C14.88 21.2255 14.7083 20.8 14.7083 20.2923C14.7083 19.7847 14.88 19.3592 15.2234 19.0158C15.5668 18.6724 15.9924 18.5007 16.5 18.5007C17.0076 18.5007 17.4332 18.6724 17.7766 19.0158C18.12 19.3592 18.2917 19.7847 18.2917 20.2923C18.2917 20.8 18.12 21.2255 17.7766 21.5689C17.4332 21.9123 17.0076 22.084 16.5 22.084ZM23.6667 22.084C23.159 22.084 22.7335 21.9123 22.3901 21.5689C22.0467 21.2255 21.875 20.8 21.875 20.2923C21.875 19.7847 22.0467 19.3592 22.3901 19.0158C22.7335 18.6724 23.159 18.5007 23.6667 18.5007C24.1743 18.5007 24.5998 18.6724 24.9432 19.0158C25.2866 19.3592 25.4583 19.7847 25.4583 20.2923C25.4583 20.8 25.2866 21.2255 24.9432 21.5689C24.5998 21.9123 24.1743 22.084 23.6667 22.084ZM3.95833 36.4173C2.97292 36.4173 2.12934 36.0665 1.4276 35.3647C0.725868 34.663 0.375 33.8194 0.375 32.834V7.75065C0.375 6.76523 0.725868 5.92166 1.4276 5.21992C2.12934 4.51819 2.97292 4.16732 3.95833 4.16732H5.75V0.583984H9.33333V4.16732H23.6667V0.583984H27.25V4.16732H29.0417C30.0271 4.16732 30.8707 4.51819 31.5724 5.21992C32.2741 5.92166 32.625 6.76523 32.625 7.75065V32.834C32.625 33.8194 32.2741 34.663 31.5724 35.3647C30.8707 36.0665 30.0271 36.4173 29.0417 36.4173H3.95833ZM3.95833 32.834H29.0417V14.9173H3.95833V32.834ZM3.95833 11.334H29.0417V7.75065H3.95833V11.334Z" fill="#E8EAED"/>
</svg>
