<svg width="33" height="37" viewBox="0 0 33 37" fill="none" xmlns="http://www.w3.org/2000/svg">
<path d="M14.6187 29.8777L8.25833 23.5173L10.8562 20.9194L14.6187 24.6819L22.1437 17.1569L24.7417 19.7548L14.6187 29.8777ZM3.95833 36.4173C2.97292 36.4173 2.12934 36.0664 1.4276 35.3647C0.725868 34.663 0.375 33.8194 0.375 32.834V7.75065C0.375 6.76523 0.725868 5.92166 1.4276 5.21992C2.12934 4.51819 2.97292 4.16732 3.95833 4.16732H5.75V0.583984H9.33333V4.16732H23.6667V0.583984H27.25V4.16732H29.0417C30.0271 4.16732 30.8707 4.51819 31.5724 5.21992C32.2741 5.92166 32.625 6.76523 32.625 7.75065V32.834C32.625 33.8194 32.2741 34.663 31.5724 35.3647C30.8707 36.0664 30.0271 36.4173 29.0417 36.4173H3.95833ZM3.95833 32.834H29.0417V14.9173H3.95833V32.834ZM3.95833 11.334H29.0417V7.75065H3.95833V11.334Z" fill="#E8EAED"/>
</svg>
