<svg width="21" height="20" viewBox="0 0 21 20" fill="none" xmlns="http://www.w3.org/2000/svg">
<path d="M14.2917 13.2474C13.4931 13.2474 12.8142 12.9679 12.2552 12.4089C11.6962 11.8498 11.4167 11.171 11.4167 10.3724C11.4167 9.57378 11.6962 8.89497 12.2552 8.33594C12.8142 7.77691 13.4931 7.4974 14.2917 7.4974C15.0903 7.4974 15.7691 7.77691 16.3281 8.33594C16.8872 8.89497 17.1667 9.57378 17.1667 10.3724C17.1667 11.171 16.8872 11.8498 16.3281 12.4089C15.7691 12.9679 15.0903 13.2474 14.2917 13.2474ZM8.54167 19.9557V17.1766C8.54167 16.8411 8.62153 16.5257 8.78125 16.2302C8.94097 15.9347 9.16458 15.6991 9.45208 15.5234C9.96319 15.22 10.5023 14.9684 11.0693 14.7687C11.6363 14.5691 12.2153 14.4214 12.8062 14.3255L14.2917 16.1224L15.7771 14.3255C16.3681 14.4214 16.9431 14.5691 17.5021 14.7687C18.0611 14.9684 18.5962 15.22 19.1073 15.5234C19.3948 15.6991 19.6224 15.9347 19.7901 16.2302C19.9578 16.5257 20.0417 16.8411 20.0417 17.1766V19.9557H8.54167ZM6.625 17.1766V18.0391H2.79167C2.26458 18.0391 1.81337 17.8514 1.43802 17.476C1.06267 17.1007 0.875 16.6495 0.875 16.1224V2.70573C0.875 2.17865 1.06267 1.72743 1.43802 1.35208C1.81337 0.976736 2.26458 0.789062 2.79167 0.789062H16.2083C16.7354 0.789062 17.1866 0.976736 17.562 1.35208C17.9373 1.72743 18.125 2.17865 18.125 2.70573V7.4974C17.6299 6.87448 17.0708 6.39931 16.4479 6.07188C15.825 5.74444 15.1062 5.58073 14.2917 5.58073V4.6224H4.70833V6.53906H11.4167C11.0972 6.79462 10.8097 7.08212 10.5542 7.40156C10.2986 7.72101 10.083 8.0724 9.90729 8.45573H4.70833V10.3724H9.5C9.5 10.7078 9.53594 11.0352 9.60781 11.3547C9.67969 11.6741 9.77951 11.9856 9.90729 12.2891H4.70833V14.2057H8.01458C7.58333 14.5731 7.24392 15.0163 6.99635 15.5354C6.74878 16.0545 6.625 16.6016 6.625 17.1766Z" fill="#E8EAED"/>
</svg>
