<svg width="34" height="38" viewBox="0 0 34 38" fill="none" xmlns="http://www.w3.org/2000/svg">
<path d="M17.8477 29.2497C16.6255 30.4719 15.1436 31.083 13.4019 31.083C11.6602 31.083 10.1783 30.4719 8.95605 29.2497C7.73383 28.0275 7.12272 26.5531 7.12272 24.8268C7.12272 23.1004 7.73383 21.6261 8.95605 20.4038L16.5644 12.7497C17.7866 11.5275 19.2686 10.9163 21.0102 10.9163C22.7519 10.9163 24.2338 11.5275 25.4561 12.7497C26.6783 13.9719 27.2894 15.4462 27.2894 17.1726C27.2894 18.899 26.6783 20.3733 25.4561 21.5955L17.8477 29.2497ZM11.5227 26.6372C12.2255 27.34 12.9512 27.592 13.6998 27.3934C14.4484 27.1948 14.9602 26.958 15.2352 26.683L17.7561 24.1163L14.0894 20.4497L11.5227 22.9705C11.0033 23.49 10.7436 24.1011 10.7436 24.8038C10.7436 25.5066 11.0033 26.1177 11.5227 26.6372ZM22.8894 15.3622C22.1866 14.6594 21.4609 14.4073 20.7123 14.6059C19.9637 14.8045 19.4519 15.0413 19.1769 15.3163L16.6561 17.883L20.3227 21.5497L22.8894 19.0288C23.4088 18.5094 23.6686 17.8983 23.6686 17.1955C23.6686 16.4927 23.4088 15.8816 22.8894 15.3622ZM4.37272 37.4997C3.36439 37.4997 2.50119 37.1406 1.78314 36.4226C1.06508 35.7045 0.706055 34.8413 0.706055 33.833V8.16634C0.706055 7.15801 1.06508 6.29481 1.78314 5.57676C2.50119 4.8587 3.36439 4.49967 4.37272 4.49967H12.0727C12.4699 3.39967 13.1345 2.51356 14.0665 1.84134C14.9984 1.16912 16.0449 0.833008 17.2061 0.833008C18.3672 0.833008 19.4137 1.16912 20.3456 1.84134C21.2776 2.51356 21.9422 3.39967 22.3394 4.49967H30.0394C31.0477 4.49967 31.9109 4.8587 32.629 5.57676C33.347 6.29481 33.7061 7.15801 33.7061 8.16634V33.833C33.7061 34.8413 33.347 35.7045 32.629 36.4226C31.9109 37.1406 31.0477 37.4997 30.0394 37.4997H4.37272ZM4.37272 33.833H30.0394V8.16634H4.37272V33.833ZM17.2061 6.79134C17.6033 6.79134 17.9317 6.66148 18.1915 6.40176C18.4512 6.14204 18.5811 5.81356 18.5811 5.41634C18.5811 5.01912 18.4512 4.69065 18.1915 4.43092C17.9317 4.1712 17.6033 4.04134 17.2061 4.04134C16.8088 4.04134 16.4804 4.1712 16.2206 4.43092C15.9609 4.69065 15.8311 5.01912 15.8311 5.41634C15.8311 5.81356 15.9609 6.14204 16.2206 6.40176C16.4804 6.66148 16.8088 6.79134 17.2061 6.79134Z" fill="#E8EAED"/>
</svg>
