<svg width="36" height="36" viewBox="0 0 36 36" fill="none" xmlns="http://www.w3.org/2000/svg">
<path d="M21.5 23.25C21.9958 23.25 22.426 23.0677 22.7906 22.7031C23.1552 22.3385 23.3375 21.9083 23.3375 21.4125C23.3375 20.9167 23.1552 20.4865 22.7906 20.1219C22.426 19.7573 21.9958 19.575 21.5 19.575C21.0042 19.575 20.574 19.7573 20.2094 20.1219C19.8448 20.4865 19.6625 20.9167 19.6625 21.4125C19.6625 21.9083 19.8448 22.3385 20.2094 22.7031C20.574 23.0677 21.0042 23.25 21.5 23.25ZM20.1875 17.65H22.8125C22.8125 16.8042 22.9 16.1844 23.075 15.7906C23.25 15.3969 23.6583 14.8792 24.3 14.2375C25.175 13.3625 25.7583 12.6552 26.05 12.1156C26.3417 11.576 26.4875 10.9417 26.4875 10.2125C26.4875 8.9 26.0281 7.82812 25.1094 6.99687C24.1906 6.16563 22.9875 5.75 21.5 5.75C20.3042 5.75 19.2615 6.08542 18.3719 6.75625C17.4823 7.42708 16.8625 8.31667 16.5125 9.425L18.875 10.3875C19.1375 9.65833 19.4948 9.11146 19.9469 8.74687C20.399 8.38229 20.9167 8.2 21.5 8.2C22.2 8.2 22.7687 8.39687 23.2062 8.79062C23.6437 9.18437 23.8625 9.71667 23.8625 10.3875C23.8625 10.7958 23.7458 11.1823 23.5125 11.5469C23.2792 11.9115 22.8708 12.3708 22.2875 12.925C21.325 13.7708 20.7344 14.4344 20.5156 14.9156C20.2969 15.3969 20.1875 16.3083 20.1875 17.65ZM11 28.5C10.0375 28.5 9.21354 28.1573 8.52812 27.4719C7.84271 26.7865 7.5 25.9625 7.5 25V4C7.5 3.0375 7.84271 2.21354 8.52812 1.52812C9.21354 0.842708 10.0375 0.5 11 0.5H32C32.9625 0.5 33.7865 0.842708 34.4719 1.52812C35.1573 2.21354 35.5 3.0375 35.5 4V25C35.5 25.9625 35.1573 26.7865 34.4719 27.4719C33.7865 28.1573 32.9625 28.5 32 28.5H11ZM11 25H32V4H11V25ZM4 35.5C3.0375 35.5 2.21354 35.1573 1.52812 34.4719C0.842708 33.7865 0.5 32.9625 0.5 32V7.5H4V32H28.5V35.5H4Z" fill="#E8EAED"/>
</svg>
