<svg width="36" height="36" viewBox="0 0 36 36" fill="none" xmlns="http://www.w3.org/2000/svg">
<path d="M13.3207 21.9375L18.4395 18.8312L23.5582 21.9375L22.202 16.1187L26.752 12.1812L20.7582 11.7L18.4395 6.1875L16.1207 11.7L10.127 12.1812L14.677 16.1187L13.3207 21.9375ZM0.939453 35.5V4C0.939453 3.0375 1.28216 2.21354 1.96758 1.52812C2.65299 0.842708 3.47695 0.5 4.43945 0.5H32.4395C33.402 0.5 34.2259 0.842708 34.9113 1.52812C35.5967 2.21354 35.9395 3.0375 35.9395 4V25C35.9395 25.9625 35.5967 26.7865 34.9113 27.4719C34.2259 28.1573 33.402 28.5 32.4395 28.5H7.93945L0.939453 35.5ZM6.45195 25H32.4395V4H4.43945V26.9688L6.45195 25Z" fill="#E8EAED"/>
</svg>
