<svg width="25" height="25" viewBox="0 0 25 25" fill="none" xmlns="http://www.w3.org/2000/svg">
<path d="M8.84375 15.3125L12.5 13.0938L16.1562 15.3125L15.1875 11.1562L18.4375 8.34375L14.1562 8L12.5 4.0625L10.8438 8L6.5625 8.34375L9.8125 11.1562L8.84375 15.3125ZM0 25V2.5C0 1.8125 0.244792 1.22396 0.734375 0.734375C1.22396 0.244792 1.8125 0 2.5 0H22.5C23.1875 0 23.776 0.244792 24.2656 0.734375C24.7552 1.22396 25 1.8125 25 2.5V17.5C25 18.1875 24.7552 18.776 24.2656 19.2656C23.776 19.7552 23.1875 20 22.5 20H5L0 25ZM3.9375 17.5H22.5V2.5H2.5V18.9062L3.9375 17.5Z" fill="#0C5C63"/>
</svg>
