<svg width="43" height="43" viewBox="0 0 43 43" fill="none" xmlns="http://www.w3.org/2000/svg">
<path d="M21.5003 21.5003C19.5295 21.5003 17.8423 20.7986 16.4389 19.3951C15.0354 17.9916 14.3337 16.3045 14.3337 14.3337C14.3337 12.3628 15.0354 10.6757 16.4389 9.2722C17.8423 7.86873 19.5295 7.16699 21.5003 7.16699C23.4712 7.16699 25.1583 7.86873 26.5618 9.2722C27.9653 10.6757 28.667 12.3628 28.667 14.3337C28.667 16.3045 27.9653 17.9916 26.5618 19.3951C25.1583 20.7986 23.4712 21.5003 21.5003 21.5003ZM7.16699 35.8337V30.817C7.16699 29.8017 7.42828 28.8686 7.95085 28.0175C8.47342 27.1665 9.16769 26.517 10.0337 26.0691C11.885 25.1434 13.7663 24.4491 15.6774 23.9863C17.5885 23.5234 19.5295 23.292 21.5003 23.292C23.4712 23.292 25.4121 23.5234 27.3232 23.9863C29.2344 24.4491 31.1156 25.1434 32.967 26.0691C33.833 26.517 34.5272 27.1665 35.0498 28.0175C35.5724 28.8686 35.8337 29.8017 35.8337 30.817V35.8337H7.16699ZM10.7503 32.2503H32.2503V30.817C32.2503 30.4885 32.1682 30.1899 32.004 29.9212C31.8397 29.6524 31.6232 29.4434 31.3545 29.2941C29.742 28.4878 28.1146 27.8831 26.4722 27.48C24.8298 27.0769 23.1725 26.8753 21.5003 26.8753C19.8281 26.8753 18.1708 27.0769 16.5285 27.48C14.8861 27.8831 13.2587 28.4878 11.6462 29.2941C11.3774 29.4434 11.1609 29.6524 10.9967 29.9212C10.8324 30.1899 10.7503 30.4885 10.7503 30.817V32.2503ZM21.5003 17.917C22.4857 17.917 23.3293 17.5661 24.0311 16.8644C24.7328 16.1627 25.0837 15.3191 25.0837 14.3337C25.0837 13.3482 24.7328 12.5047 24.0311 11.8029C23.3293 11.1012 22.4857 10.7503 21.5003 10.7503C20.5149 10.7503 19.6713 11.1012 18.9696 11.8029C18.2679 12.5047 17.917 13.3482 17.917 14.3337C17.917 15.3191 18.2679 16.1627 18.9696 16.8644C19.6713 17.5661 20.5149 17.917 21.5003 17.917Z" fill="#E8EAED"/>
</svg>
