<svg width="32" height="28" viewBox="0 0 32 28" fill="none" xmlns="http://www.w3.org/2000/svg">
<path d="M10.75 26.25V22.75H31.75V26.25H10.75ZM10.75 15.75V12.25H31.75V15.75H10.75ZM10.75 5.25V1.75H31.75V5.25H10.75ZM3.75 28C2.7875 28 1.96354 27.6573 1.27812 26.9719C0.592708 26.2865 0.25 25.4625 0.25 24.5C0.25 23.5375 0.592708 22.7135 1.27812 22.0281C1.96354 21.3427 2.7875 21 3.75 21C4.7125 21 5.53646 21.3427 6.22187 22.0281C6.90729 22.7135 7.25 23.5375 7.25 24.5C7.25 25.4625 6.90729 26.2865 6.22187 26.9719C5.53646 27.6573 4.7125 28 3.75 28ZM3.75 17.5C2.7875 17.5 1.96354 17.1573 1.27812 16.4719C0.592708 15.7865 0.25 14.9625 0.25 14C0.25 13.0375 0.592708 12.2135 1.27812 11.5281C1.96354 10.8427 2.7875 10.5 3.75 10.5C4.7125 10.5 5.53646 10.8427 6.22187 11.5281C6.90729 12.2135 7.25 13.0375 7.25 14C7.25 14.9625 6.90729 15.7865 6.22187 16.4719C5.53646 17.1573 4.7125 17.5 3.75 17.5ZM3.75 7C2.7875 7 1.96354 6.65729 1.27812 5.97187C0.592708 5.28646 0.25 4.4625 0.25 3.5C0.25 2.5375 0.592708 1.71354 1.27812 1.02812C1.96354 0.342708 2.7875 0 3.75 0C4.7125 0 5.53646 0.342708 6.22187 1.02812C6.90729 1.71354 7.25 2.5375 7.25 3.5C7.25 4.4625 6.90729 5.28646 6.22187 5.97187C5.53646 6.65729 4.7125 7 3.75 7Z" fill="#E8EAED"/>
</svg>
