<svg width="37" height="37" viewBox="0 0 37 37" fill="none" xmlns="http://www.w3.org/2000/svg">
<path d="M7.74967 22.084H22.083V18.5007H7.74967V22.084ZM7.74967 16.709H29.2497V13.1257H7.74967V16.709ZM7.74967 11.334H29.2497V7.75065H7.74967V11.334ZM0.583008 36.4173V4.16732C0.583008 3.1819 0.933876 2.33832 1.63561 1.63659C2.33735 0.934852 3.18092 0.583984 4.16634 0.583984H32.833C33.8184 0.583984 34.662 0.934852 35.3637 1.63659C36.0655 2.33832 36.4163 3.1819 36.4163 4.16732V25.6673C36.4163 26.6527 36.0655 27.4963 35.3637 28.198C34.662 28.8998 33.8184 29.2507 32.833 29.2507H7.74967L0.583008 36.4173ZM6.22676 25.6673H32.833V4.16732H4.16634V27.6829L6.22676 25.6673Z" fill="#E8EAED"/>
</svg>
