<svg width="37" height="37" viewBox="0 0 37 37" fill="none" xmlns="http://www.w3.org/2000/svg">
<path d="M25.4583 23.6667C23.9653 23.6667 22.6962 23.1441 21.651 22.099C20.6059 21.0538 20.0833 19.7847 20.0833 18.2917C20.0833 16.7986 20.6059 15.5295 21.651 14.4844C22.6962 13.4392 23.9653 12.9167 25.4583 12.9167C26.9514 12.9167 28.2205 13.4392 29.2656 14.4844C30.3108 15.5295 30.8333 16.7986 30.8333 18.2917C30.8333 19.7847 30.3108 21.0538 29.2656 22.099C28.2205 23.1441 26.9514 23.6667 25.4583 23.6667ZM25.4583 20.0833C25.966 20.0833 26.3915 19.9116 26.7349 19.5682C27.0783 19.2248 27.25 18.7993 27.25 18.2917C27.25 17.784 27.0783 17.3585 26.7349 17.0151C26.3915 16.6717 25.966 16.5 25.4583 16.5C24.9507 16.5 24.5252 16.6717 24.1818 17.0151C23.8384 17.3585 23.6667 17.784 23.6667 18.2917C23.6667 18.7993 23.8384 19.2248 24.1818 19.5682C24.5252 19.9116 24.9507 20.0833 25.4583 20.0833ZM14.7083 36.2083V31.0125C14.7083 30.3854 14.8576 29.7957 15.1562 29.2432C15.4549 28.6908 15.8729 28.2503 16.4104 27.9219C17.366 27.3545 18.3738 26.8842 19.4339 26.5109C20.4939 26.1377 21.5764 25.8615 22.6812 25.6823L25.4583 29.0417L28.2354 25.6823C29.3403 25.8615 30.4153 26.1377 31.4604 26.5109C32.5056 26.8842 33.5059 27.3545 34.4615 27.9219C34.999 28.2503 35.4245 28.6908 35.738 29.2432C36.0516 29.7957 36.2083 30.3854 36.2083 31.0125V36.2083H14.7083ZM18.2469 32.625H23.7562L21.3375 29.6687C20.8 29.8181 20.2774 30.0122 19.7698 30.251C19.2622 30.4899 18.7545 30.7437 18.2469 31.0125V32.625ZM27.1604 32.625H32.625V31.0125C32.1472 30.7139 31.6545 30.4526 31.1469 30.2286C30.6392 30.0047 30.1167 29.8181 29.5792 29.6687L27.1604 32.625ZM3.95833 32.625C2.97292 32.625 2.12934 32.2741 1.4276 31.5724C0.725868 30.8707 0.375 30.0271 0.375 29.0417V3.95833C0.375 2.97292 0.725868 2.12934 1.4276 1.4276C2.12934 0.725868 2.97292 0.375 3.95833 0.375H29.0417C30.0271 0.375 30.8707 0.725868 31.5724 1.4276C32.2741 2.12934 32.625 2.97292 32.625 3.95833V12.9167C32.1472 12.3194 31.6247 11.7521 31.0573 11.2146C30.4899 10.6771 29.8181 10.3187 29.0417 10.1396V3.95833H3.95833V29.0417H11.3937C11.3042 29.3701 11.237 29.6986 11.1922 30.0271C11.1474 30.3556 11.125 30.684 11.125 31.0125V32.625H3.95833ZM7.54167 11.125H20.0833C20.8597 10.5278 21.7108 10.0799 22.6365 9.78125C23.5622 9.48264 24.5028 9.33333 25.4583 9.33333V7.54167H7.54167V11.125ZM7.54167 18.2917H16.5C16.5 17.6646 16.5672 17.0524 16.7016 16.4552C16.8359 15.858 17.0226 15.2757 17.2615 14.7083H7.54167V18.2917ZM7.54167 25.4583H13.7229C14.0514 25.1896 14.4023 24.9507 14.7755 24.7417C15.1488 24.5326 15.5295 24.3385 15.9177 24.1594V21.875H7.54167V25.4583ZM3.95833 29.0417V3.95833V10.0948V9.33333V29.0417Z" fill="#E8EAED"/>
</svg>
