<svg width="14" height="14" viewBox="0 0 14 14" fill="none" xmlns="http://www.w3.org/2000/svg">
<path d="M6.59767 6.59767C5.69049 6.59767 4.91389 6.27466 4.26787 5.62864C3.62185 4.98262 3.29884 4.20602 3.29884 3.29884C3.29884 2.39166 3.62185 1.61506 4.26787 0.969033C4.91389 0.323011 5.69049 0 6.59767 0C7.50485 0 8.28145 0.323011 8.92748 0.969033C9.5735 1.61506 9.89651 2.39166 9.89651 3.29884C9.89651 4.20602 9.5735 4.98262 8.92748 5.62864C8.28145 6.27466 7.50485 6.59767 6.59767 6.59767ZM0 13.1953V10.8862C0 10.4188 0.12027 9.98929 0.36081 9.59755C0.60135 9.20582 0.920925 8.90686 1.31953 8.70068C2.17173 8.27458 3.03768 7.95501 3.91737 7.74196C4.79706 7.52891 5.69049 7.42238 6.59767 7.42238C7.50485 7.42238 8.39829 7.52891 9.27798 7.74196C10.1577 7.95501 11.0236 8.27458 11.8758 8.70068C12.2744 8.90686 12.594 9.20582 12.8345 9.59755C13.0751 9.98929 13.1953 10.4188 13.1953 10.8862V13.1953H0ZM1.64942 11.5459H11.5459V10.8862C11.5459 10.735 11.5081 10.5975 11.4325 10.4738C11.3569 10.3501 11.2573 10.2539 11.1336 10.1852C10.3913 9.81404 9.64222 9.5357 8.88624 9.35014C8.13026 9.16458 7.3674 9.0718 6.59767 9.0718C5.82794 9.0718 5.06509 9.16458 4.30911 9.35014C3.55312 9.5357 2.80401 9.81404 2.06177 10.1852C1.93807 10.2539 1.83841 10.3501 1.76282 10.4738C1.68722 10.5975 1.64942 10.735 1.64942 10.8862V11.5459ZM6.59767 4.94826C7.05126 4.94826 7.43956 4.78675 7.76258 4.46374C8.08559 4.14073 8.24709 3.75243 8.24709 3.29884C8.24709 2.84525 8.08559 2.45695 7.76258 2.13393C7.43956 1.81092 7.05126 1.64942 6.59767 1.64942C6.14408 1.64942 5.75578 1.81092 5.43277 2.13393C5.10976 2.45695 4.94826 2.84525 4.94826 3.29884C4.94826 3.75243 5.10976 4.14073 5.43277 4.46374C5.75578 4.78675 6.14408 4.94826 6.59767 4.94826Z" fill="#E8EAED"/>
</svg>
