<svg width="17" height="17" viewBox="0 0 17 17" fill="none" xmlns="http://www.w3.org/2000/svg">
<path d="M8.49967 8.41471C7.44551 8.41471 6.54308 8.03937 5.79238 7.28867C5.04169 6.53798 4.66634 5.63555 4.66634 4.58138C4.66634 3.52721 5.04169 2.62478 5.79238 1.87409C6.54308 1.12339 7.44551 0.748047 8.49967 0.748047C9.55384 0.748047 10.4563 1.12339 11.207 1.87409C11.9577 2.62478 12.333 3.52721 12.333 4.58138C12.333 5.63555 11.9577 6.53798 11.207 7.28867C10.4563 8.03937 9.55384 8.41471 8.49967 8.41471ZM0.833008 16.0814V13.398C0.833008 12.855 0.972765 12.3559 1.25228 11.9007C1.53179 11.4454 1.90315 11.098 2.36634 10.8585C3.35662 10.3633 4.36287 9.99197 5.38509 9.7444C6.40731 9.49683 7.44551 9.37305 8.49967 9.37305C9.55384 9.37305 10.592 9.49683 11.6143 9.7444C12.6365 9.99197 13.6427 10.3633 14.633 10.8585C15.0962 11.098 15.4676 11.4454 15.7471 11.9007C16.0266 12.3559 16.1663 12.855 16.1663 13.398V16.0814H0.833008Z" fill="#E8EAED"/>
</svg>
