<svg width="37" height="37" viewBox="0 0 37 37" fill="none" xmlns="http://www.w3.org/2000/svg">
<path d="M18.4997 36.4163C16.0212 36.4163 13.692 35.946 11.5122 35.0054C9.33231 34.0648 7.43613 32.7882 5.82363 31.1757C4.21113 29.5632 2.93457 27.667 1.99395 25.4872C1.05332 23.3073 0.583008 20.9781 0.583008 18.4997C0.583008 16.0212 1.05332 13.692 1.99395 11.5122C2.93457 9.33231 4.21113 7.43613 5.82363 5.82363C7.43613 4.21113 9.33231 2.93457 11.5122 1.99395C13.692 1.05332 16.0212 0.583008 18.4997 0.583008C20.9781 0.583008 23.3073 1.05332 25.4872 1.99395C27.667 2.93457 29.5632 4.21113 31.1757 5.82363C32.7882 7.43613 34.0648 9.33231 35.0054 11.5122C35.946 13.692 36.4163 16.0212 36.4163 18.4997C36.4163 20.9781 35.946 23.3073 35.0054 25.4872C34.0648 27.667 32.7882 29.5632 31.1757 31.1757C29.5632 32.7882 27.667 34.0648 25.4872 35.0054C23.3073 35.946 20.9781 36.4163 18.4997 36.4163ZM18.4997 32.833C22.5011 32.833 25.8903 31.4445 28.6674 28.6674C31.4445 25.8903 32.833 22.5011 32.833 18.4997C32.833 16.5886 32.4672 14.7596 31.7356 13.0127C31.004 11.2658 29.9663 9.72051 28.6226 8.37676L8.37676 28.6226C9.72051 29.9663 11.2658 31.004 13.0127 31.7356C14.7596 32.4672 16.5886 32.833 18.4997 32.833ZM18.4997 25.6663V22.9788H27.458V25.6663H18.4997ZM11.333 17.6038H14.0205V14.0205H17.6038V11.333H14.0205V7.74967H11.333V11.333H7.74967V14.0205H11.333V17.6038Z" fill="#E8EAED"/>
</svg>
