<svg width="36" height="36" viewBox="0 0 36 36" fill="none" xmlns="http://www.w3.org/2000/svg">
<path d="M12.75 35.5C9.36667 35.5 6.47917 34.3042 4.0875 31.9125C1.69583 29.5208 0.5 26.6333 0.5 23.25C0.5 19.8667 1.69583 16.9792 4.0875 14.5875C6.47917 12.1958 9.36667 11 12.75 11C16.1333 11 19.0208 12.1958 21.4125 14.5875C23.8042 16.9792 25 19.8667 25 23.25C25 26.6333 23.8042 29.5208 21.4125 31.9125C19.0208 34.3042 16.1333 35.5 12.75 35.5ZM12.75 32C15.1708 32 17.2344 31.1469 18.9406 29.4406C20.6469 27.7344 21.5 25.6708 21.5 23.25C21.5 20.8292 20.6469 18.7656 18.9406 17.0594C17.2344 15.3531 15.1708 14.5 12.75 14.5C10.3292 14.5 8.26562 15.3531 6.55937 17.0594C4.85313 18.7656 4 20.8292 4 23.25C4 25.6708 4.85313 27.7344 6.55937 29.4406C8.26562 31.1469 10.3292 32 12.75 32ZM26.6625 24.475C26.7208 24.3 26.75 24.1104 26.75 23.9062V23.25C26.75 19.3708 25.3865 16.0677 22.6594 13.3406C19.9323 10.6135 16.6292 9.25 12.75 9.25H12.0938C11.8896 9.25 11.7 9.27917 11.525 9.3375C12.2833 6.77083 13.7198 4.65625 15.8344 2.99375C17.949 1.33125 20.4208 0.5 23.25 0.5C26.6333 0.5 29.5208 1.69583 31.9125 4.0875C34.3042 6.47917 35.5 9.36667 35.5 12.75C35.5 15.5792 34.6688 18.051 33.0062 20.1656C31.3438 22.2802 29.2292 23.7167 26.6625 24.475Z" fill="#E8EAED"/>
</svg>
