<svg width="26" height="33" viewBox="0 0 26 33" fill="none" xmlns="http://www.w3.org/2000/svg">
<path d="M10.5426 26.3542H15.9176V21.875H20.3968V16.5H15.9176V12.0208H10.5426V16.5H6.06348V21.875H10.5426V26.3542ZM4.27181 32.625C3.28639 32.625 2.44282 32.2741 1.74108 31.5724C1.03934 30.8707 0.688477 30.0271 0.688477 29.0417V9.33333C0.688477 8.34792 1.03934 7.50434 1.74108 6.8026C2.44282 6.10087 3.28639 5.75 4.27181 5.75H22.1885C23.1739 5.75 24.0175 6.10087 24.7192 6.8026C25.4209 7.50434 25.7718 8.34792 25.7718 9.33333V29.0417C25.7718 30.0271 25.4209 30.8707 24.7192 31.5724C24.0175 32.2741 23.1739 32.625 22.1885 32.625H4.27181ZM4.27181 29.0417H22.1885V9.33333H4.27181V29.0417ZM2.48014 3.95833V0.375H23.9801V3.95833H2.48014Z" fill="#E8EAED"/>
</svg>
