<svg width="21" height="20" viewBox="0 0 21 20" fill="none" xmlns="http://www.w3.org/2000/svg">
<path d="M10.5003 19.9967C9.17463 19.9967 7.9288 19.7452 6.76283 19.2421C5.59685 18.7389 4.58262 18.0561 3.72012 17.1936C2.85762 16.3311 2.1748 15.3169 1.67168 14.1509C1.16855 12.9849 0.916992 11.7391 0.916992 10.4134C0.916992 9.08772 1.16855 7.84188 1.67168 6.67591C2.1748 5.50994 2.85762 4.4957 3.72012 3.6332C4.58262 2.7707 5.59685 2.08789 6.76283 1.58477C7.9288 1.08164 9.17463 0.830078 10.5003 0.830078C11.826 0.830078 13.0719 1.08164 14.2378 1.58477C15.4038 2.08789 16.418 2.7707 17.2805 3.6332C18.143 4.4957 18.8258 5.50994 19.329 6.67591C19.8321 7.84188 20.0837 9.08772 20.0837 10.4134C20.0837 11.7391 19.8321 12.9849 19.329 14.1509C18.8258 15.3169 18.143 16.3311 17.2805 17.1936C16.418 18.0561 15.4038 18.7389 14.2378 19.2421C13.0719 19.7452 11.826 19.9967 10.5003 19.9967ZM10.5003 18.0801L9.82949 17.4092C9.73366 17.3134 9.66178 17.2096 9.61387 17.0978C9.56595 16.986 9.54199 16.8662 9.54199 16.7384V11.3717C9.01491 11.3717 8.56369 11.1841 8.18835 10.8087C7.813 10.4334 7.62533 9.98216 7.62533 9.45508V8.49674L4.63053 5.50195C4.07151 6.17279 3.63227 6.92348 3.31283 7.75404C2.99338 8.58459 2.83366 9.47105 2.83366 10.4134C2.83366 12.5537 3.57637 14.3665 5.06178 15.852C6.5472 17.3374 8.36005 18.0801 10.5003 18.0801ZM11.4587 18.0322C13.3594 17.7926 14.9526 16.954 16.2383 15.5165C17.5241 14.079 18.167 12.378 18.167 10.4134C18.167 8.28911 17.4203 6.48025 15.9269 4.98685C14.4335 3.49345 12.6246 2.74674 10.5003 2.74674C9.79755 2.74674 9.12272 2.83859 8.47585 3.02227C7.82897 3.20595 7.22602 3.45751 6.66699 3.77695V5.62174H10.0691C10.3566 5.62174 10.6321 5.68563 10.8956 5.81341C11.1592 5.94119 11.3788 6.11688 11.5545 6.34049L12.8962 8.01758H14.3337C14.6052 8.01758 14.8328 8.10942 15.0165 8.2931C15.2002 8.47678 15.292 8.70438 15.292 8.97591V9.98216C15.292 10.1259 15.272 10.2617 15.2321 10.3895C15.1922 10.5172 15.1323 10.645 15.0524 10.7728L11.4587 16.1634V18.0322Z" fill="#E8EAED"/>
</svg>
