<svg width="37" height="37" viewBox="0 0 37 37" fill="none" xmlns="http://www.w3.org/2000/svg">
<path opacity="1" d="M18.4997 36.4163C16.0212 36.4163 13.692 35.946 11.5122 35.0054C9.33231 34.0648 7.43613 32.7882 5.82363 31.1757C4.21113 29.5632 2.93457 27.667 1.99395 25.4872C1.05332 23.3073 0.583008 20.9781 0.583008 18.4997C0.583008 16.0212 1.05332 13.692 1.99395 11.5122C2.93457 9.33231 4.21113 7.43613 5.82363 5.82363C7.43613 4.21113 9.33231 2.93457 11.5122 1.99395C13.692 1.05332 16.0212 0.583008 18.4997 0.583008C20.9781 0.583008 23.3073 1.05332 25.4872 1.99395C27.667 2.93457 29.5632 4.21113 31.1757 5.82363C32.7882 7.43613 34.0648 9.33231 35.0054 11.5122C35.946 13.692 36.4163 16.0212 36.4163 18.4997C36.4163 20.9781 35.946 23.3073 35.0054 25.4872C34.0648 27.667 32.7882 29.5632 31.1757 31.1757C29.5632 32.7882 27.667 34.0648 25.4872 35.0054C23.3073 35.946 20.9781 36.4163 18.4997 36.4163ZM18.4997 32.833L17.2455 31.5788C17.0663 31.3997 16.932 31.2056 16.8424 30.9965C16.7528 30.7875 16.708 30.5636 16.708 30.3247V20.2913C15.7226 20.2913 14.879 19.9405 14.1773 19.2387C13.4755 18.537 13.1247 17.6934 13.1247 16.708V14.9163L7.52572 9.31738C6.48058 10.5715 5.6594 11.975 5.06217 13.5278C4.46495 15.0806 4.16634 16.7379 4.16634 18.4997C4.16634 22.5011 5.55488 25.8903 8.33197 28.6674C11.109 31.4445 14.4983 32.833 18.4997 32.833ZM20.2913 32.7434C23.8448 32.2955 26.8235 30.7278 29.2273 28.0403C31.6311 25.3528 32.833 22.1726 32.833 18.4997C32.833 14.5281 31.437 11.1464 28.645 8.35436C25.853 5.56235 22.4712 4.16634 18.4997 4.16634C17.1858 4.16634 15.9242 4.33804 14.7148 4.68145C13.5054 5.02485 12.3781 5.49516 11.333 6.09238V9.54134H17.6934C18.2309 9.54134 18.746 9.66079 19.2387 9.89967C19.7314 10.1386 20.142 10.467 20.4705 10.8851L22.9788 14.0205H25.6663C26.174 14.0205 26.5995 14.1922 26.9429 14.5356C27.2863 14.879 27.458 15.3045 27.458 15.8122V17.6934C27.458 17.9622 27.4207 18.216 27.346 18.4549C27.2714 18.6938 27.1594 18.9327 27.0101 19.1715L20.2913 29.2497V32.7434Z" fill="#E8EAED"/>
</svg>
