<svg width="31" height="38" viewBox="0 0 31 38" fill="none" xmlns="http://www.w3.org/2000/svg">
<path d="M4.43913 37.3327C3.43079 37.3327 2.5676 36.9737 1.84954 36.2556C1.13149 35.5375 0.772461 34.6744 0.772461 33.666V11.666C0.772461 10.6577 1.13149 9.79449 1.84954 9.07643C2.5676 8.35838 3.43079 7.99935 4.43913 7.99935H8.10579C8.10579 5.98268 8.82385 4.25629 10.26 2.82018C11.6961 1.38407 13.4225 0.666016 15.4391 0.666016C17.4558 0.666016 19.1822 1.38407 20.6183 2.82018C22.0544 4.25629 22.7725 5.98268 22.7725 7.99935H26.4391C27.4475 7.99935 28.3107 8.35838 29.0287 9.07643C29.7468 9.79449 30.1058 10.6577 30.1058 11.666V33.666C30.1058 34.6744 29.7468 35.5375 29.0287 36.2556C28.3107 36.9737 27.4475 37.3327 26.4391 37.3327H4.43913ZM4.43913 33.666H26.4391V11.666H22.7725V15.3327C22.7725 15.8521 22.5968 16.2875 22.2454 16.6389C21.894 16.9903 21.4586 17.166 20.9391 17.166C20.4197 17.166 19.9843 16.9903 19.6329 16.6389C19.2815 16.2875 19.1058 15.8521 19.1058 15.3327V11.666H11.7725V15.3327C11.7725 15.8521 11.5968 16.2875 11.2454 16.6389C10.894 16.9903 10.4586 17.166 9.93913 17.166C9.41968 17.166 8.98427 16.9903 8.63288 16.6389C8.28149 16.2875 8.10579 15.8521 8.10579 15.3327V11.666H4.43913V33.666ZM11.7725 7.99935H19.1058C19.1058 6.99102 18.7468 6.12782 18.0287 5.40977C17.3107 4.69171 16.4475 4.33268 15.4391 4.33268C14.4308 4.33268 13.5676 4.69171 12.8495 5.40977C12.1315 6.12782 11.7725 6.99102 11.7725 7.99935Z" fill="#E8EAED"/>
</svg>
