<svg width="36" height="36" viewBox="0 0 36 36" fill="none" xmlns="http://www.w3.org/2000/svg">
<path d="M24.125 16.25C24.8542 16.25 25.474 15.9948 25.9844 15.4844C26.4948 14.974 26.75 14.3542 26.75 13.625C26.75 12.8958 26.4948 12.276 25.9844 11.7656C25.474 11.2552 24.8542 11 24.125 11C23.3958 11 22.776 11.2552 22.2656 11.7656C21.7552 12.276 21.5 12.8958 21.5 13.625C21.5 14.3542 21.7552 14.974 22.2656 15.4844C22.776 15.9948 23.3958 16.25 24.125 16.25ZM11.875 16.25C12.6042 16.25 13.224 15.9948 13.7344 15.4844C14.2448 14.974 14.5 14.3542 14.5 13.625C14.5 12.8958 14.2448 12.276 13.7344 11.7656C13.224 11.2552 12.6042 11 11.875 11C11.1458 11 10.526 11.2552 10.0156 11.7656C9.50521 12.276 9.25 12.8958 9.25 13.625C9.25 14.3542 9.50521 14.974 10.0156 15.4844C10.526 15.9948 11.1458 16.25 11.875 16.25ZM18 27.625C19.9833 27.625 21.7844 27.0635 23.4031 25.9406C25.0219 24.8177 26.1958 23.3375 26.925 21.5H24.0375C23.3958 22.5792 22.5427 23.4323 21.4781 24.0594C20.4135 24.6865 19.2542 25 18 25C16.7458 25 15.5865 24.6865 14.5219 24.0594C13.4573 23.4323 12.6042 22.5792 11.9625 21.5H9.075C9.80417 23.3375 10.9781 24.8177 12.5969 25.9406C14.2156 27.0635 16.0167 27.625 18 27.625ZM18 35.5C15.5792 35.5 13.3042 35.0406 11.175 34.1219C9.04583 33.2031 7.19375 31.9562 5.61875 30.3813C4.04375 28.8062 2.79688 26.9542 1.87812 24.825C0.959375 22.6958 0.5 20.4208 0.5 18C0.5 15.5792 0.959375 13.3042 1.87812 11.175C2.79688 9.04583 4.04375 7.19375 5.61875 5.61875C7.19375 4.04375 9.04583 2.79688 11.175 1.87812C13.3042 0.959375 15.5792 0.5 18 0.5C20.4208 0.5 22.6958 0.959375 24.825 1.87812C26.9542 2.79688 28.8062 4.04375 30.3813 5.61875C31.9562 7.19375 33.2031 9.04583 34.1219 11.175C35.0406 13.3042 35.5 15.5792 35.5 18C35.5 20.4208 35.0406 22.6958 34.1219 24.825C33.2031 26.9542 31.9562 28.8062 30.3813 30.3813C28.8062 31.9562 26.9542 33.2031 24.825 34.1219C22.6958 35.0406 20.4208 35.5 18 35.5ZM18 32C21.9083 32 25.2188 30.6437 27.9312 27.9312C30.6437 25.2188 32 21.9083 32 18C32 14.0917 30.6437 10.7812 27.9312 8.06875C25.2188 5.35625 21.9083 4 18 4C14.0917 4 10.7812 5.35625 8.06875 8.06875C5.35625 10.7812 4 14.0917 4 18C4 21.9083 5.35625 25.2188 8.06875 27.9312C10.7812 30.6437 14.0917 32 18 32Z" fill="#E8EAED"/>
</svg>
