<svg width="38" height="35" viewBox="0 0 38 35" fill="none" xmlns="http://www.w3.org/2000/svg">
<path d="M17.024 1.60795C17.6366 -0.205126 20.201 -0.205124 20.8136 1.60796L23.829 10.5328C24.1036 11.3455 24.8659 11.8926 25.7238 11.8926H35.3106C37.2669 11.8926 38.0598 14.4116 36.4561 15.5321L28.8364 20.8559C28.1079 21.3649 27.8027 22.2936 28.0871 23.1355L31.029 31.8427C31.647 33.6716 29.5713 35.228 27.9888 34.1223L20.0643 28.5856C19.3763 28.1049 18.4613 28.1049 17.7733 28.5856L9.84883 34.1223C8.2663 35.228 6.19062 33.6716 6.80857 31.8427L9.75047 23.1355C10.0349 22.2936 9.7297 21.3649 9.00118 20.8559L1.38152 15.5321C-0.222152 14.4116 0.570673 11.8926 2.527 11.8926H12.1138C12.9717 11.8926 13.734 11.3455 14.0086 10.5328L17.024 1.60795Z" fill="white"/>
</svg>
