<svg width="36" height="36" viewBox="0 0 36 36" fill="none" xmlns="http://www.w3.org/2000/svg">
<path d="M24.125 16.25C24.8542 16.25 25.474 15.9948 25.9844 15.4844C26.4948 14.974 26.75 14.3542 26.75 13.625C26.75 12.8958 26.4948 12.276 25.9844 11.7656C25.474 11.2552 24.8542 11 24.125 11C23.3958 11 22.776 11.2552 22.2656 11.7656C21.7552 12.276 21.5 12.8958 21.5 13.625C21.5 14.3542 21.7552 14.974 22.2656 15.4844C22.776 15.9948 23.3958 16.25 24.125 16.25ZM11.875 16.25C12.6042 16.25 13.224 15.9948 13.7344 15.4844C14.2448 14.974 14.5 14.3542 14.5 13.625C14.5 12.8958 14.2448 12.276 13.7344 11.7656C13.224 11.2552 12.6042 11 11.875 11C11.1458 11 10.526 11.2552 10.0156 11.7656C9.50521 12.276 9.25 12.8958 9.25 13.625C9.25 14.3542 9.50521 14.974 10.0156 15.4844C10.526 15.9948 11.1458 16.25 11.875 16.25ZM18 20.625C16.0167 20.625 14.2156 21.1865 12.5969 22.3094C10.9781 23.4323 9.80417 24.9125 9.075 26.75H11.9625C12.6042 25.6708 13.4573 24.8177 14.5219 24.1906C15.5865 23.5635 16.7458 23.25 18 23.25C19.2542 23.25 20.4135 23.5635 21.4781 24.1906C22.5427 24.8177 23.3958 25.6708 24.0375 26.75H26.925C26.1958 24.9125 25.0219 23.4323 23.4031 22.3094C21.7844 21.1865 19.9833 20.625 18 20.625ZM18 35.5C15.5792 35.5 13.3042 35.0406 11.175 34.1219C9.04583 33.2031 7.19375 31.9562 5.61875 30.3813C4.04375 28.8062 2.79688 26.9542 1.87812 24.825C0.959375 22.6958 0.5 20.4208 0.5 18C0.5 15.5792 0.959375 13.3042 1.87812 11.175C2.79688 9.04583 4.04375 7.19375 5.61875 5.61875C7.19375 4.04375 9.04583 2.79688 11.175 1.87812C13.3042 0.959375 15.5792 0.5 18 0.5C20.4208 0.5 22.6958 0.959375 24.825 1.87812C26.9542 2.79688 28.8062 4.04375 30.3813 5.61875C31.9562 7.19375 33.2031 9.04583 34.1219 11.175C35.0406 13.3042 35.5 15.5792 35.5 18C35.5 20.4208 35.0406 22.6958 34.1219 24.825C33.2031 26.9542 31.9562 28.8062 30.3813 30.3813C28.8062 31.9562 26.9542 33.2031 24.825 34.1219C22.6958 35.0406 20.4208 35.5 18 35.5ZM18 32C21.9083 32 25.2188 30.6437 27.9312 27.9312C30.6437 25.2188 32 21.9083 32 18C32 14.0917 30.6437 10.7812 27.9312 8.06875C25.2188 5.35625 21.9083 4 18 4C14.0917 4 10.7812 5.35625 8.06875 8.06875C5.35625 10.7812 4 14.0917 4 18C4 21.9083 5.35625 25.2188 8.06875 27.9312C10.7812 30.6437 14.0917 32 18 32Z" fill="#E8EAED"/>
</svg>
